<svg preserveAspectRatio="none" overflow="visible" style="display: block;" width="32" height="32" viewBox="0 0 32 32" fill="none" xmlns="http://www.w3.org/2000/svg">
<g id="photo_24dp_E3E3E3_FILL0_wght300_GRAD0_opsz24 1">
<path id="Vector" d="M7.077 27.3333C6.40344 27.3333 5.83333 27.1 5.36667 26.6333C4.9 26.1667 4.66667 25.5966 4.66667 24.923V7.077C4.66667 6.40344 4.9 5.83333 5.36667 5.36667C5.83333 4.9 6.40344 4.66667 7.077 4.66667H24.923C25.5966 4.66667 26.1667 4.9 26.6333 5.36667C27.1 5.83333 27.3333 6.40344 27.3333 7.077V24.923C27.3333 25.5966 27.1 26.1667 26.6333 26.6333C26.1667 27.1 25.5966 27.3333 24.923 27.3333H7.077ZM7.077 25.3333H24.923C25.0257 25.3333 25.1197 25.2906 25.205 25.205C25.2906 25.1197 25.3333 25.0257 25.3333 24.923V7.077C25.3333 6.97433 25.2906 6.88033 25.205 6.795C25.1197 6.70944 25.0257 6.66667 24.923 6.66667H7.077C6.97433 6.66667 6.88033 6.70944 6.795 6.795C6.70944 6.88033 6.66667 6.97433 6.66667 7.077V24.923C6.66667 25.0257 6.70944 25.1197 6.795 25.205C6.88033 25.2906 6.97433 25.3333 7.077 25.3333ZM9 22.3333H23.1023L18.718 16.4873L14.9743 21.359L12.3077 17.9487L9 22.3333Z" fill="#071722"/>
</g>
</svg>
