<svg preserveAspectRatio="none" overflow="visible" style="display: block;" width="14.8571" height="14.8571" viewBox="0 0 14.8571 14.8571" fill="none" xmlns="http://www.w3.org/2000/svg">
<g id="Icon" clip-path="url(#clip0_0_11)">
<path id="Vector" d="M11.763 6.80943H3.09635C2.41257 6.80943 1.85826 7.36374 1.85826 8.04753V12.3809C1.85826 13.0646 2.41257 13.619 3.09635 13.619H11.763C12.4468 13.619 13.0011 13.0646 13.0011 12.3809V8.04753C13.0011 7.36374 12.4468 6.80943 11.763 6.80943Z" stroke="#062B4F" stroke-width="1.2381"/>
<path id="Vector_2" d="M4.33594 6.80943V4.33324C4.33594 3.51233 4.66204 2.72505 5.24251 2.14458C5.82298 1.56411 6.61027 1.238 7.43118 1.238C8.25208 1.238 9.03937 1.56411 9.61984 2.14458C10.2003 2.72505 10.5264 3.51233 10.5264 4.33324V6.80943" stroke="#062B4F" stroke-width="1.2381"/>
</g>
<defs>
<clipPath id="clip0_0_11">
<rect width="14.8571" height="14.8571" fill="white"/>
</clipPath>
</defs>
</svg>
