<svg preserveAspectRatio="none" overflow="visible" style="display: block;" width="280.164" height="108.795" viewBox="0 0 280.164 108.795" fill="none" xmlns="http://www.w3.org/2000/svg">
<g id="Frame 2147227758">
<path id="Vector" d="M143.122 95.8481C135.804 92.197 126.104 60.0947 154.725 46.5731C175.518 36.749 196.296 54.092 196.296 69.9497C209.817 60.6207 227.439 67.8766 232.915 79.5108C238.516 91.4079 232.219 103.073 225.335 104.512C204.108 108.967 239.614 108.209 251.063 106.817C262.511 105.44 279.142 97.1786 279.266 79.0776C279.359 65.9737 268.189 56.5209 258.721 53.9992C248.046 51.1525 240.341 53.4577 237.866 57.8669C235.808 61.5645 241.672 66.6544 244.812 60.729C250.397 50.1778 246.205 27.7295 226.046 19.5608C210.714 13.357 195.599 20.9532 190.463 27.4974C179.262 -9.81854 125.856 -7.48242 120.952 32.0459C73.487 17.6115 61.8374 65.4322 80.6656 76.3702C86.6528 79.8511 89.0972 71.7908 83.0636 70.1973C76.4575 68.449 58.1708 73.276 55.9275 86.9678C52.9571 105.146 74.7247 106.678 86.3125 106.631C86.3125 106.631 210.9 108.937 206.367 106.415C200.535 103.181 115.212 101.866 0.897316 102.052" stroke="#0E56A7" stroke-width="1.79463" stroke-linecap="round" stroke-linejoin="round"/>
</g>
</svg>
