<svg preserveAspectRatio="none" overflow="visible" style="display: block;" width="18" height="18" viewBox="0 0 18 18" fill="none" xmlns="http://www.w3.org/2000/svg">
<g id="Frame">
<path id="Vector" d="M5.205 3.75C5.205 4.14782 5.04696 4.52936 4.76566 4.81066C4.48436 5.09196 4.10282 5.25 3.705 5.25C3.30718 5.25 2.92564 5.09196 2.64434 4.81066C2.36304 4.52936 2.205 4.14782 2.205 3.75C2.205 3.35218 2.36304 2.97064 2.64434 2.68934C2.92564 2.40804 3.30718 2.25 3.705 2.25C4.10282 2.25 4.48436 2.40804 4.76566 2.68934C5.04696 2.97064 5.205 3.35218 5.205 3.75ZM2.25 6.375H5.1V15.75H2.25V6.375ZM6.9 6.375H9.75V7.65H9.7875C10.0715 7.17267 10.4794 6.78116 10.968 6.51706C11.4566 6.25295 12.0076 6.12611 12.5625 6.15C15.525 6.15 16.0725 8.1 16.0725 10.65V15.75H13.1475V11.5875C13.1475 10.5975 13.1325 9.315 11.76 9.315C10.3875 9.315 10.1625 10.395 10.1625 11.5125V15.75H6.9V6.375Z" fill="white"/>
</g>
</svg>
